# xmcd
#
# Track frame offsets: 
#        150
#        15947
#        44897
#        60210
#
# Disc length: 1217 seconds
#
# Revision: 3
# Processed by: cddbd v1.5.2PL0 Copyright (c) Steve Scherf et al.
# Submitted via: ExactAudioCopy v0.99pb5
#
DISCID=2704bf04
DTITLE=Okay - The Wild, Wild Western Vol. II
DYEAR=1989
DGENRE=Electronic
TTITLE0=The Wild, Wild Western
TTITLE1=The Wild, Wild Western (Dance Mix Vol. II)
TTITLE2=The Wild, Wild Western (Here Comes The Drums)
TTITLE3=The Wild, Wild Western (Orchestral Mix)
EXTD=
EXTT0=
EXTT1=
EXTT2=
EXTT3=
PLAYORDER=
